<?xml version="1.0" encoding="UTF-8"?>
<svg id="_レイヤー_1" data-name="レイヤー_1" xmlns="http://www.w3.org/2000/svg" xmlns:xlink="http://www.w3.org/1999/xlink" version="1.1" viewBox="0 0 164 124">
  <!-- Generator: Adobe Illustrator 30.8.1, SVG Export Plug-In . SVG Version: 2.1.4 Build 1)  -->
  <defs>
    <style>
      .st0 {
        filter: url(#drop-shadow-1);
      }

      .st1 {
        fill: #55b232;
      }

      .st2 {
        fill: #1e4c69;
      }

      .st3 {
        fill: none;
        stroke: #fff;
        stroke-miterlimit: 10;
        stroke-width: 1.1px;
      }

      .st4 {
        fill: #fff;
      }

      .st5 {
        fill: #f4f2f1;
      }
    </style>
    <filter id="drop-shadow-1" x="0" y="0" width="164" height="124" filterUnits="userSpaceOnUse">
      <feOffset dx="0" dy="0"/>
      <feGaussianBlur result="blur" stdDeviation="3"/>
      <feFlood flood-color="#000" flood-opacity="0"/>
      <feComposite in2="blur" operator="in"/>
      <feComposite in="SourceGraphic"/>
    </filter>
  </defs>
  <g>
    <g class="st0">
      <path class="st5" d="M164,6v88c0,3.3-2.7,6-6,6h-11.4c-3.3,0-6,2.7-6,6v12c0,3.3-2.7,6-6,6H6c-3.3,0-6-2.7-6-6V6C0,2.7,2.7,0,6,0h152c3.3,0,6,2.7,6,6Z"/>
    </g>
    <g>
      <path class="st2" d="M146,112.8h0c0-5,4-9,9-9h0c5,0,9,4,9,9h0c0,5-4,9-9,9h0c-5,0-9-4-9-9Z"/>
      <polyline class="st3" points="153.3 116.2 156.7 112.8 153.3 109.4"/>
    </g>
  </g>
  <path class="st1" d="M143.3,19.2h5.2c.2,0,.3-.1.3-.3V6.1c0-.2-.1-.3-.3-.3h-5.2c-.2,0-.3.1-.3.3v12.8c0,.2.1.3.3.3ZM150.5,8.4v6.1c1.5.9,2.2,3.2,2.2,5.1,0,3.7-3,6.6-6.7,6.6s-6.7-2.9-6.7-6.6.7-4.2,2.2-5.1v-6.1c-4.5,1.5-8.1,6.1-8.1,11.2s5.9,12.2,12.7,12.2,12.7-5.5,12.7-12.2-3.7-9.9-8.2-11.2Z"/>
  <rect class="st1" x="10" y="54" width="105" height="16.2"/>
  <rect class="st1" x="10" y="73.7" width="55.7" height="16.2"/>
  <g>
    <path class="st1" d="M20.7,41.5h-1.1v1.4h2.9v1.6h-2.9v1.8c0,.5,0,.7.8.7h.9c.6,0,.9,0,1.2-1.6.6.4,1,.6,1.6.9-.6,1.9-.8,2.3-2.6,2.3h-1.7c-1.7,0-1.7-1.1-1.7-1.6v-2.4h-1.5c-.6,2.2-2.2,3.8-4.4,4.3-.3-.5-.6-1-1-1.4,2-.3,3.4-1.6,3.7-2.8h-2.7v-1.6h2.9c0-.1,0-.2,0-.3v-1.2h-.9v-.7c-.9.8-1.6,1.3-2.6,1.8-.3-.4-.8-.9-1.2-1.2.7-.3,1.5-.6,2.4-1.4-.8-.8-1-1-1.4-1.3l1.1-1h-.8v-1.5h5.2l.4.6c-.6,1.5-1.8,2.8-2.1,3.1h4.8c-1.3-1.4-2.3-3-2.6-3.7l1.3-.7c.4.6.6.9.9,1.3.5-.5.7-.8,1-1.3l1.3.8c0,0,.1.1.1.2,0,.2-.3.2-.5.2-.4.5-.5.6-1.1,1.2.3.3.5.5.6.6.7-.8,1.1-1.3,1.3-1.6l1.3.9c0,0,.1.1.1.2,0,.2-.2.2-.4.2-.6.7-.6.7-1.2,1.3,1,.8,1.7,1,2,1.2-.3.3-.9,1-1.1,1.5-1.1-.6-1.5-.9-2.3-1.7v.9ZM12.3,37.7c.1,0,.8.6,1.5,1.2.5-.5.7-.9.8-1.2h-2.3ZM16.6,41.5v1.4h1.3v-1.4h-1.3Z"/>
    <path class="st1" d="M35.1,46.3c0,.3,0,.6.7.6h1.3c.4,0,.6,0,.9-1.8.9.7,1.3.8,1.6.8-.4,2.3-.9,2.6-2.1,2.6h-2.4c-1.1,0-1.9-.3-1.9-1.7v-2.9h-1.8.5c0,.2.2.2.2.3s-.2.2-.4.2c-.8,2.1-2,3.6-4.6,4.5-.2-.4-.9-1.2-1.3-1.4.7-.2,3.5-.8,4.1-3.6h-2.2v-8h9.7v8h-2.4v2.4ZM35.7,38.2v-.7h-5.9v.7h5.9ZM29.8,39.5v.7h5.9v-.7h-5.9ZM29.8,41.5v.8h5.9v-.8h-5.9Z"/>
    <path class="st1" d="M52.8,40.3c-1.1.1-2.2.2-5.2,1.5-.7.3-3.5,1.5-3.5,3.2s1.1,1.5,3.8,1.5,3.6-.4,4.9-.8c-.1.5-.2,1-.2,2.2-1.8.3-3.9.4-4.8.4-2.6,0-3.6-.4-4.2-.8-.9-.5-1.5-1.3-1.5-2.4,0-1.7,1.3-3,3.1-4-.8-.8-.9-1.8-1.1-3.6,0-.4-.1-.8-.3-1.4l2.5-.5c0,.7,0,1,0,1.5,0,1.5.3,2.7.7,3.3,2-.9,2.7-1.2,5.3-2.2l.8,2.2Z"/>
    <path class="st1" d="M61.7,39.6h-4.1v-.6c-.3.3-.8.6-1.6,1.1-.5-.6-.7-.8-1.3-1.2,2.7-1.4,3.7-2.9,3.9-3.5h1.8c0,0,.2.1.2.2s0,.2-.1.2c1.1,1.1,2.1,1.5,2.9,1.8-.1.2-.7.8-.9,1.4-.2,0-.3-.1-.8-.4v.9ZM62.9,44.8v4h-1.6v-.3h-2.3v.4h-1.6v-2.1c-.4,1-.8,1.5-1.1,1.9-.6-.5-.9-.7-1.5-.9,1.4-1.6,1.5-3.2,1.5-5.5v-2.2h6.3v4.2h-4.6c0,.3,0,.3,0,.5h4.9ZM58,42.7c0,.4,0,.4,0,.6h3.1v-.6h-3.1ZM61.1,41.8v-.6h-3.1v.6h3.1ZM61.2,38.4c-.5-.3-.9-.6-1.6-1.3-.4.5-.8.9-1.2,1.3h2.8ZM59,46.1v1.1h2.3v-1.1h-2.3ZM65.3,37.5c.1,0,.3,0,.3.2s-.1.2-.3.3v7.4h-1.6v-7.9h1.6ZM68.1,35.6c.1,0,.3,0,.3.2s-.2.2-.3.3v10.7c0,1.4,0,2-2.6,2.1-.2-1.1-.6-1.7-.8-1.9.2,0,.4.1,1,.1s.7-.2.7-.7v-10.8h1.7Z"/>
    <path class="st1" d="M74.1,41v4.4c.1.9.7,1.2,1,1.4.6.3,2.8.3,3.7.3,1.8,0,3.9-.1,5.7-.3-.3.7-.5,1.1-.5,1.8h-6.4c-2.3,0-3.2-.3-4-1.3-.2.1-1.2.8-1.7,1.1,0,.3,0,.4-.2.4s-.2-.2-.2-.2l-.9-1.6c.6-.2.7-.3,1.9-1v-3.4h-1.5v-1.5h3.3ZM72.1,35.6c.7.5,1.8,1.8,2.1,2.1-.5.4-1,.8-1.4,1.2-.6-.9-1.4-1.8-2-2.3l1.3-1ZM78.4,37.1v-1.6h1.8c0,.1.3.1.3.3s0,.1-.3.3v1h3v1.5h-3v1.2h3.8v1.4h-9.3v-1.4h1.1c-.3-.3-.8-.6-1.5-.7.8-1,1.3-2.1,1.6-3.3l1.6.4c0,0,.2,0,.2.2,0,.2-.1.2-.3.3,0,.2-.1.3-.2.6h1.1ZM77.5,46v.5h-1.7v-4.6h7.1v4.5h-1.8v-.5h-3.6ZM76.6,38.6c-.4.7-.6,1-.7,1.2h2.5v-1.2h-1.8ZM81.1,44.7v-1.3h-3.6v1.3h3.6Z"/>
    <path class="st1" d="M93.1,46.6c3.4-.7,4.3-3.2,4.3-4.7s-1.1-3.7-3.7-3.8c-.5,5.4-2.6,9.3-4.1,9.3s-3.1-1.8-3.1-4.4,2.8-6.6,6.9-6.6,5.9,2.1,5.9,5.6-1,3.6-1.7,4.4c-1,1.1-2.2,1.6-3.3,2.1-.4-.7-.7-1.1-1.3-1.7ZM88.4,42.8c0,1.2.7,2.2,1.1,2.2s.8-1,1.1-1.6c1-2.5,1.1-4.4,1.1-5-2,.6-3.2,2.9-3.2,4.4Z"/>
    <path class="st1" d="M105.8,40v-1.6h3.7v-2.9h1.7c.1.1.3.1.3.3s0,.2-.3.3v2.3h3.8v1.6h-3.3c.6,1.1,2,3.4,3.8,5-.4.3-1,1-1.2,1.4-.5-.4-2.1-2.3-3.2-4.8v3.3h1.7v1.6h-1.7v2.3h-1.7v-2.3h-1.7v-1.6h1.7v-3.1c-1.2,2.4-2.6,3.9-3.3,4.5-.5-.6-1-.9-1.1-1v3.5h-1.8v-6.9c-.4.5-.6.8-.8,1-.2-.4-.7-1-1.3-1.3,1.9-2.1,2.9-4.5,3.4-6.1l1.7.6c.2,0,.2.2.2.3,0,.2-.3.2-.4.2,0,.1-.1.3-.6,1.5-.1.4-.3.7-.5,1.1.3.1.4.2.4.3,0,.1,0,.2-.3.3v5.4c1.7-1.6,3.1-3.3,3.9-5h-3.3Z"/>
    <path class="st1" d="M118.4,44.4c.1,0,.3,0,.3.1s-.2.2-.2.2c0,1.2,0,2-.2,2.8-.2,0-.8-.1-1.1-.1.2-.9.3-2,.3-3.1h.9ZM122.8,38.2v.6c2.3-1.3,3-2.8,3.2-3.3l1.5.3c.2,0,.3.1.3.2s-.1.2-.3.2c.5.8,1.8,1.8,3.4,2.4-.5.5-.7.8-1,1.4-.3-.1-.5-.2-.7-.4v.8h-1.6v.7h2.7v3.7h-2.4c.4.7,1.2,1.8,2.9,2.7-.7.8-.8.9-1,1.4-1.7-1-2.7-2.6-2.8-2.8-.5.9-1.7,2.3-3.2,2.9-.2-.4-.7-1-1.1-1.3,1-.4,2.5-1,3.2-2.9h-2.3v-3.7h2.5v-.7h-1.7v-.6c-.3.2-.4.3-.7.4-.5-.7-.6-.8-.9-1v.2h-1.3v.8h1.3v1.2h-1.3v.9h1.7c0,1.6-.1,4.4-1,5.7-.4.6-1,.6-2.1.7-.1-.6-.3-.8-.6-1.6.2,0,.7,0,.9,0,.4,0,.9,0,1.2-1.7-.2,0-.4.1-.5.2-.1-.8-.2-1-.3-1.6l.7-.2c0,.3.2.7.3,1,0-.4,0-.8,0-1.3h-2.5v.4h-1.4v-8h5.6v1.4h-1.9v.8h1.3ZM119.5,44.3c.1.9.2,2.3.2,2.4-.1,0-.7.2-.9.3,0-.8,0-1.8-.1-2.6h.8ZM120.1,38.2v-.8h-.9v.8h.9ZM120.1,40.2v-.8h-.9v.8h.9ZM120.1,42.4v-.9h-.9v.9h.9ZM120.4,44.1c.2.7.4,1.7.4,1.8-.3,0-.4,0-.7.2,0-.2-.1-1.2-.3-1.9h.6ZM126,43.4c0,0,0-.1,0-.2v-.9h-1v1h1ZM128.3,39c-.6-.4-1.2-1-1.8-1.6-.3.4-.6.9-1.4,1.6h3.2ZM127.5,42.4v1h1.2v-1h-1.2Z"/>
  </g>
  <g>
    <path class="st4" d="M24.3,58.4c0,0-.1.2-.2.3s-.2.2-.2.3c-.2.3-.4.6-.7,1-.3.4-.6.7-.9,1.1-.3.4-.7.7-1,.9l-1.1-.9c.2-.1.4-.3.6-.5.2-.2.4-.4.6-.6s.3-.4.5-.6c.1-.2.2-.3.3-.5h-5.7c-.2,0-.4,0-.6,0-.2,0-.4,0-.7,0v-1.5c.2,0,.4,0,.7,0,.2,0,.5,0,.7,0h5.9c.1,0,.2,0,.4,0s.3,0,.4,0c.1,0,.2,0,.3,0l.9.8ZM19.8,59.9c0,.5,0,1.1,0,1.6,0,.5,0,1-.2,1.5,0,.5-.3.9-.5,1.3-.2.4-.5.8-.9,1.2-.4.4-.9.7-1.5,1l-1.3-1c.2,0,.4-.1.6-.2s.4-.2.6-.4c.4-.2.6-.5.9-.8.2-.3.4-.6.5-.9.1-.3.2-.7.2-1,0-.4,0-.8,0-1.2s0-.3,0-.5c0-.2,0-.3,0-.5h1.6Z"/>
    <path class="st4" d="M25.6,60.7c.1,0,.3,0,.5,0,.2,0,.4,0,.6,0s.4,0,.6,0h5.9c.3,0,.5,0,.7,0,.2,0,.4,0,.6,0v1.7c-.1,0-.3,0-.6,0s-.5,0-.7,0h-5.9c-.3,0-.6,0-1,0-.3,0-.6,0-.8,0v-1.7Z"/>
    <path class="st4" d="M38.4,64.8v-6.3c0-.2,0-.4,0-.7,0-.2,0-.5,0-.7h1.7c0,.2,0,.4,0,.6,0,.2,0,.5,0,.7v6.3c0,.1,0,.2,0,.4,0,.2,0,.4,0,.6,0,.2,0,.4,0,.5h-1.7c0-.2,0-.5,0-.8,0-.3,0-.5,0-.8ZM39.6,60c.4,0,.8.2,1.2.4.5.2.9.3,1.4.5.5.2.9.3,1.3.5.4.2.7.3,1,.5l-.6,1.5c-.3-.2-.6-.3-1-.5s-.8-.3-1.1-.5-.8-.3-1.1-.4c-.4-.1-.7-.2-1-.4v-1.6Z"/>
    <path class="st4" d="M50.1,60.2c.3,0,.5,0,.7.2s.4.3.5.5c.1.2.2.4.2.7s0,.5-.2.7c-.1.2-.3.4-.5.5s-.4.2-.7.2-.5,0-.7-.2-.4-.3-.5-.5c-.1-.2-.2-.4-.2-.7s0-.5.2-.7c.1-.2.3-.4.5-.5s.4-.2.7-.2Z"/>
    <path class="st4" d="M55.5,61.1c.4.1.8.2,1.2.3.4,0,.8.1,1.2.1.4,0,.8,0,1.2,0s.7,0,1.1,0c.4,0,.8,0,1.1,0v1.3c-.3,0-.7,0-1,0-.3,0-.7,0-1,0-.7,0-1.4,0-2.1-.1s-1.3-.2-1.8-.3v-1.3ZM55.8,58.4c.3.1.7.2,1.1.3s.8.1,1.2.2c.4,0,.8,0,1.2,0s.8,0,1.2,0,.7,0,1-.1v1.3c-.4,0-.7,0-1,0s-.7,0-1.2,0-.8,0-1.2,0c-.4,0-.8,0-1.2-.2-.4,0-.8-.1-1.1-.2v-1.3ZM59.7,57c0,.2,0,.4-.1.5,0,.2,0,.3,0,.5,0,.2,0,.4-.1.7,0,.3,0,.6-.1,1s0,.7-.1,1.1c0,.4,0,.8-.1,1.1,0,.4,0,.7-.1,1,0,.3,0,.6,0,.7,0,.5.1.8.4,1,.3.2.7.4,1.2.4s.9,0,1.3-.2.6-.3.8-.6.3-.5.3-.8,0-.7-.3-1.1c-.2-.4-.5-.7-.8-1l1.6-.3c.4.5.6.9.8,1.3.2.4.3.9.3,1.3s-.2,1-.5,1.5c-.3.4-.8.8-1.3,1-.6.2-1.3.4-2.1.4s-1.1,0-1.5-.3c-.4-.2-.8-.5-1-.8-.2-.4-.4-.9-.4-1.5s0-.5,0-.9c0-.4,0-.8.1-1.3,0-.5.1-.9.2-1.4,0-.5.1-.9.2-1.3s0-.8.1-1.1c0-.3,0-.5,0-.6,0-.1,0-.3,0-.4h1.6Z"/>
    <path class="st4" d="M72.4,58.3c0,.6-.2,1.2-.3,1.8s-.3,1.3-.5,1.9c-.2.7-.5,1.4-.7,1.9-.3.5-.6.9-.9,1.2s-.7.4-1.1.4-.8-.1-1.1-.4-.6-.7-.8-1.1c-.2-.5-.3-1-.3-1.6s.1-1.2.4-1.8c.3-.6.6-1.1,1.1-1.5.5-.4,1-.8,1.6-1,.6-.2,1.3-.4,2-.4s1.3.1,1.8.3c.5.2,1,.5,1.4.9s.7.8.9,1.4c.2.5.3,1.1.3,1.7s-.2,1.5-.5,2.1c-.3.6-.8,1.1-1.4,1.5-.6.4-1.4.7-2.3.8l-.8-1.3c.2,0,.4,0,.6,0s.3,0,.5,0c.4,0,.7-.2,1-.4s.6-.4.8-.6c.2-.2.4-.5.5-.9.1-.3.2-.7.2-1.1s0-.8-.2-1.2c-.1-.4-.3-.7-.6-.9s-.6-.5-.9-.6c-.4-.1-.8-.2-1.3-.2s-1.1.1-1.6.3-.8.5-1.1.8c-.3.3-.5.7-.7,1.1-.2.4-.2.7-.2,1.1s0,.7.1.9c0,.2.2.4.3.6s.3.2.4.2.3,0,.5-.2.3-.4.4-.7.3-.7.4-1.2c.2-.5.3-1.1.4-1.7.1-.6.2-1.2.3-1.8h1.5Z"/>
    <path class="st4" d="M77.8,60c.2,0,.4,0,.7-.2.2,0,.5-.1.7-.2.2,0,.5-.2.9-.3.4-.1.8-.2,1.2-.4.4-.1.9-.2,1.3-.3s.9-.1,1.3-.1c.7,0,1.3.1,1.8.4s1,.6,1.3,1.1c.3.5.5,1.1.5,1.7s0,1-.3,1.4c-.2.4-.5.8-.8,1.1-.4.3-.8.6-1.3.9-.5.2-1.1.4-1.7.6-.7.1-1.4.2-2.1.3l-.6-1.5c.7,0,1.4,0,2.1-.2.6-.1,1.2-.3,1.7-.5.5-.2.9-.5,1.1-.9.3-.4.4-.8.4-1.3s0-.7-.2-.9c-.2-.3-.4-.5-.7-.6-.3-.2-.7-.2-1.1-.2s-.7,0-1.1.1c-.4,0-.8.2-1.2.3-.4.1-.8.3-1.2.4s-.7.3-1.1.4c-.3.1-.6.3-.8.4l-.6-1.5ZM85.9,57c0,.1.2.3.3.5.1.2.2.4.3.6.1.2.2.3.3.5l-.9.4c-.1-.2-.3-.5-.4-.8-.2-.3-.3-.5-.5-.8l.9-.4ZM87.2,56.5c0,.1.2.3.3.5.1.2.2.4.3.5.1.2.2.3.3.5l-.9.4c-.1-.2-.2-.5-.4-.8-.2-.3-.3-.5-.5-.7l.9-.4Z"/>
    <path class="st4" d="M96.3,57.9c-.2.1-.3.3-.5.4-.2.1-.3.3-.4.4-.2.1-.4.3-.7.5-.3.2-.5.4-.8.6-.3.2-.5.4-.8.6-.3.2-.5.4-.7.5-.2.2-.3.3-.4.4,0,.1,0,.2,0,.3,0,.1.2.2.4.4.2.1.4.3.6.5.3.2.5.4.8.7.3.2.6.5.9.8s.6.5.9.8c.3.3.5.5.8.7l-1.3,1.2c-.3-.3-.6-.7-1-1-.2-.2-.4-.4-.7-.6-.3-.2-.6-.5-.9-.8-.3-.3-.6-.5-.9-.8-.3-.3-.6-.5-.8-.7-.4-.3-.6-.6-.7-.8-.1-.3,0-.5,0-.8.1-.3.4-.5.8-.8.2-.2.5-.4.7-.6.3-.2.6-.5.9-.7.3-.2.6-.5.8-.7.3-.2.5-.4.7-.6.2-.2.3-.3.5-.5.2-.2.3-.3.4-.4l1.3,1.1Z"/>
    <path class="st4" d="M101.9,57c0,.1,0,.3-.1.5,0,.2,0,.4-.1.6s0,.4-.1.6c0,.2,0,.4,0,.5.1-.2.3-.4.5-.6s.4-.4.6-.6c.2-.2.5-.3.8-.4.3-.1.6-.2.9-.2.5,0,1,.2,1.4.5.4.3.7.8,1,1.4.2.6.4,1.3.4,2.1s-.1,1.5-.3,2-.6,1.1-1,1.5c-.4.4-.9.7-1.5,1-.6.3-1.2.5-2,.6l-.8-1.3c.6,0,1.2-.2,1.7-.4s1-.4,1.3-.7.7-.7.9-1.1c.2-.5.3-1,.3-1.7s0-1-.2-1.4c-.1-.4-.3-.7-.5-.9-.2-.2-.5-.3-.8-.3s-.6.1-.9.3c-.3.2-.6.5-.8.8-.2.3-.4.7-.5,1.1s-.2.8-.2,1.1c0,.2,0,.3,0,.5,0,.2,0,.4,0,.7h-1.4c0-.1,0-.4,0-.7,0-.3,0-.7,0-1s0-.5,0-.8c0-.3,0-.6,0-.9,0-.3,0-.6,0-.9,0-.3,0-.6.1-.9,0-.2,0-.4,0-.6,0-.2,0-.4,0-.5h1.5Z"/>
    <path class="st4" d="M16.8,75.7l1.3.4c-.3.6-.6,1.3-.9,1.9-.4.6-.7,1.2-1.1,1.8s-.8,1.1-1.3,1.5c0-.1-.1-.2-.2-.4,0-.2-.2-.3-.3-.5s-.2-.3-.3-.4c.4-.3.7-.7,1.1-1.2.3-.5.7-.9,1-1.5s.5-1.1.8-1.6ZM15.6,78.9l1.3-1.3h0v8.4h-1.3v-7.1ZM17.4,79h7.1v1.3h-7.1v-1.3ZM17.7,84.4h6.6v1.3h-6.6v-1.3ZM20.3,75.9h1.4v9.3h-1.4v-9.3Z"/>
    <path class="st4" d="M25.6,82h10.2v1h-10.2v-1ZM25.9,76.4h9.7v1h-9.7v-1ZM26.6,83.5h7.4v1h-7.4v-1ZM26.7,80.6h7.9v4.3h-1.3v-3.4h-6.6v-.9ZM27,77.9h7.5v2.2h-7.5v-2.2ZM28.2,78.8v.5h4.9v-.5h-4.9ZM30,75.7h1.3v9.1c0,.3,0,.6-.1.7,0,.2-.2.3-.5.4-.2,0-.5.1-.8.2-.3,0-.7,0-1.2,0,0-.2,0-.3-.2-.5s-.2-.4-.3-.5c.2,0,.4,0,.5,0,.2,0,.3,0,.5,0h.3c.1,0,.2,0,.2,0s0-.1,0-.2v-9.1Z"/>
    <path class="st4" d="M39.1,75.8l1.3.4c-.2.6-.5,1.2-.8,1.9-.3.6-.6,1.2-1,1.8-.3.6-.7,1.1-1.1,1.5,0-.1-.1-.3-.2-.4,0-.2-.2-.3-.3-.5,0-.2-.2-.3-.3-.4.3-.3.6-.7.9-1.2.3-.4.5-.9.8-1.4.2-.5.4-1,.6-1.5ZM38.2,78.8l1.3-1.3h0v8.5h-1.3v-7.2ZM42.5,78.3l1,.3c-.2.8-.5,1.5-.8,2.2s-.6,1.4-1,2c-.4.6-.8,1.2-1.2,1.6,0-.1-.2-.2-.3-.3-.1-.1-.2-.3-.3-.4s-.2-.2-.3-.3c.4-.4.8-.8,1.2-1.4.4-.6.7-1.2,1-1.8.3-.6.6-1.3.7-2ZM40.1,77.7h7.1v1.3h-7.1v-1.3ZM41.4,83h4.2v1.2h-4.2v-1.2ZM42.9,75.8h1.3v10.2h-1.3v-10.2ZM44.6,78.4c.2.6.4,1.2.7,1.9s.6,1.2,1,1.7c.4.5.7,1,1.1,1.4-.2.1-.3.3-.5.5-.2.2-.4.4-.5.6-.4-.4-.8-1-1.1-1.6-.4-.6-.7-1.3-1-2s-.5-1.4-.7-2.2l.9-.3Z"/>
    <path class="st4" d="M49.3,82.6h.7c0,.5,0,.8,0,1.1,0,.3-.1.6-.2.9,0,.3-.2.5-.3.7l-.7-.4c.1-.2.2-.4.3-.7s.1-.5.2-.8,0-.6,0-.9ZM49.4,76.1h4.1v1.1h-3v4.6h-1.1v-5.7ZM49.4,81.1h3.8v1h-3.8v-1ZM50,77.8h3.2v1h-3.2v-1ZM50,79.5h3.2v1h-3.2v-1ZM50.1,82.9h.6c0,.3,0,.6.1,1,0,.4,0,.7,0,1h-.6c0-.2,0-.5,0-.9,0-.4,0-.7,0-1.1ZM50.9,82.8h.6c0,.2.2.5.2.8,0,.3.1.6.1.9h-.6c0-.1,0-.4-.1-.7,0-.3-.1-.6-.2-.9ZM51.2,76.7h1v4.9h-1v-4.9ZM52.6,81.1h1.1c0,.2,0,.4,0,.4,0,.9,0,1.6-.1,2.2,0,.6,0,1-.2,1.3,0,.3-.1.5-.2.6,0,.1-.2.2-.3.3-.1,0-.2,0-.4.1-.1,0-.3,0-.4,0-.2,0-.4,0-.5,0,0-.2,0-.3,0-.5,0-.2-.1-.4-.2-.5.1,0,.3,0,.4,0s.2,0,.3,0,.1,0,.2,0,0,0,.1-.1c0,0,.1-.2.1-.5s0-.6.1-1.1c0-.5,0-1.2,0-2v-.2ZM51.6,82.7l.5-.2c.1.2.2.5.3.7,0,.3.2.5.2.7l-.5.2c0-.2-.1-.4-.2-.7s-.2-.5-.3-.7ZM56.3,76.9c-.2.3-.4.6-.6.9s-.5.6-.9.9c-.3.3-.7.6-1,.8,0-.2-.1-.3-.3-.6s-.2-.4-.3-.5c.4-.2.7-.4,1-.7.3-.3.6-.6.9-1s.5-.7.6-1h1.2c.2.3.5.7.7,1,.3.3.6.6.9.9.3.3.6.5,1,.6-.1.1-.2.3-.4.5s-.2.4-.3.6c-.3-.2-.6-.4-.9-.7-.3-.3-.6-.6-.9-.9-.3-.3-.5-.6-.7-.9ZM55.7,78.9h1.2v2.2c0,.4,0,.9,0,1.3,0,.5-.2.9-.4,1.4-.2.4-.5.9-.9,1.3s-.9.8-1.6,1.1c0,0-.1-.2-.2-.3,0-.1-.2-.2-.3-.3s-.2-.2-.3-.3c.6-.3,1-.6,1.4-.9.3-.3.6-.7.8-1,.2-.4.3-.7.3-1.1,0-.4,0-.7,0-1.1v-2.1ZM53.9,80h5v2.9h-5v-2.9ZM54.6,78.4h3.4v1h-3.4v-1ZM54.9,81v1h2.8v-1h-2.8ZM57,82.4c.2.6.5,1.1.9,1.6.4.5.9.8,1.4,1.1,0,0-.2.2-.3.3-.1.1-.2.2-.3.4,0,.1-.2.3-.2.4-.6-.3-1.1-.8-1.5-1.4-.4-.6-.7-1.3-1-2l1-.3Z"/>
  </g>
</svg>