<?xml version="1.0" encoding="UTF-8"?>
<svg id="_レイヤー_1" data-name="レイヤー_1" xmlns="http://www.w3.org/2000/svg" xmlns:xlink="http://www.w3.org/1999/xlink" version="1.1" viewBox="0 0 164 124">
  <!-- Generator: Adobe Illustrator 30.8.1, SVG Export Plug-In . SVG Version: 2.1.4 Build 1)  -->
  <defs>
    <style>
      .st0 {
        filter: url(#drop-shadow-1);
      }

      .st1 {
        fill: #ed711a;
      }

      .st2 {
        fill: #1e4c69;
      }

      .st3 {
        fill: none;
        stroke: #fff;
        stroke-miterlimit: 10;
        stroke-width: 1.1px;
      }

      .st4 {
        fill: #fff;
      }

      .st5 {
        fill: #f4f2f1;
      }
    </style>
    <filter id="drop-shadow-1" x="0" y="0" width="164" height="124" filterUnits="userSpaceOnUse">
      <feOffset dx="0" dy="0"/>
      <feGaussianBlur result="blur" stdDeviation="3"/>
      <feFlood flood-color="#000" flood-opacity="0"/>
      <feComposite in2="blur" operator="in"/>
      <feComposite in="SourceGraphic"/>
    </filter>
  </defs>
  <g>
    <g class="st0">
      <path class="st5" d="M164,6v88c0,3.3-2.7,6-6,6h-11.4c-3.3,0-6,2.7-6,6v12c0,3.3-2.7,6-6,6H6c-3.3,0-6-2.7-6-6V6C0,2.7,2.7,0,6,0h152c3.3,0,6,2.7,6,6Z"/>
    </g>
    <g>
      <path class="st2" d="M146,112.8h0c0-5,4-9,9-9h0c5,0,9,4,9,9h0c0,5-4,9-9,9h0c-5,0-9-4-9-9Z"/>
      <polyline class="st3" points="153.3 116.2 156.7 112.8 153.3 109.4"/>
    </g>
  </g>
  <rect class="st1" x="10" y="73.7" width="129.2" height="16.2"/>
  <path class="st1" d="M143.3,19.2h5.2c.2,0,.3-.1.3-.3V6.1c0-.2-.1-.3-.3-.3h-5.2c-.2,0-.3.1-.3.3v12.8c0,.2.1.3.3.3ZM150.5,8.4v6.1c1.5.9,2.2,3.2,2.2,5.1,0,3.7-3,6.6-6.7,6.6s-6.7-2.9-6.7-6.6.7-4.2,2.2-5.1v-6.1c-4.5,1.5-8.1,6.1-8.1,11.2s5.9,12.2,12.7,12.2,12.7-5.5,12.7-12.2-3.7-9.9-8.2-11.2Z"/>
  <g>
    <path class="st4" d="M15.1,80.4l1.3.3c0,.5-.1,1-.2,1.6,0,.5-.2,1-.4,1.5-.2.5-.4.9-.6,1.2l-1.2-.7c.2-.3.4-.7.5-1.1.1-.4.3-.9.4-1.3,0-.5.2-.9.2-1.4ZM17.1,79.7h1.4v5.2c0,.3,0,.4.1.5,0,0,.2.1.5.1h1.5c.2,0,.3,0,.4-.2,0-.1.2-.3.2-.6,0-.3,0-.7,0-1.3.2.1.4.2.6.3.2.1.5.2.6.2,0,.7-.1,1.2-.2,1.6-.1.4-.3.7-.5.8-.2.2-.6.2-1,.2h-1.8c-.5,0-.8,0-1.1-.2-.3-.1-.4-.3-.5-.6s-.2-.6-.2-1.1v-5.2ZM17.1,77.6l.9-1c.4.2.9.3,1.3.6.5.2.9.4,1.3.7.4.2.8.5,1.1.7l-.9,1.2c-.3-.2-.6-.5-1-.7-.4-.3-.8-.5-1.3-.7-.5-.2-.9-.4-1.3-.6ZM21.4,80.6l1.2-.6c.3.4.6.8.9,1.3.3.5.5.9.7,1.4.2.5.3.9.4,1.3l-1.3.7c0-.4-.2-.8-.4-1.3-.2-.5-.4-1-.7-1.4s-.5-.9-.8-1.3Z"/>
    <path class="st4" d="M26.1,84c.3-.1.7-.2,1.1-.4s.8-.3,1.3-.5c.5-.2.9-.4,1.3-.6l.3,1.2c-.6.3-1.2.6-1.8.9-.6.3-1.2.5-1.7.8l-.5-1.3ZM26.3,79.1h3.6v1.3h-3.6v-1.3ZM27.6,76.7h1.2v7.3h-1.2v-7.3ZM29.4,80.9l5.7-2.4.5,1.1-5.7,2.5-.5-1.2ZM30.5,77.6h1.3v7.1c0,.2,0,.4,0,.5,0,.1.1.2.2.2.1,0,.3,0,.5,0h2.1c.2,0,.3,0,.5-.1s.2-.2.2-.4c0-.2,0-.5.1-.9.1.1.3.2.5.3s.4.2.6.2c0,.5-.2.9-.3,1.2-.1.3-.3.5-.6.6-.2.1-.6.2-1,.2h-2.4c-.5,0-.9,0-1.2-.2s-.5-.3-.6-.6-.2-.7-.2-1.2v-7.1ZM32.7,76.5h1.2v7.8h-1.2v-7.8ZM34.9,78.6h0l.2-.2.2-.2.9.3v.2c0,.5,0,1,0,1.4,0,.4,0,.8,0,1.1s0,.6,0,.8c0,.2,0,.4,0,.5,0,.3,0,.5-.2.6,0,.1-.2.3-.4.3-.2,0-.3.1-.6.1-.2,0-.4,0-.6,0,0-.2,0-.4,0-.6,0-.2-.1-.4-.2-.5,0,0,.2,0,.3,0,.1,0,.2,0,.2,0s.1,0,.2,0c0,0,0,0,0-.2,0,0,0-.2,0-.4,0-.2,0-.4,0-.7s0-.7,0-1.2c0-.5,0-1,0-1.6Z"/>
    <path class="st4" d="M43.8,77c0,.1,0,.2,0,.4s0,.3,0,.5c0,.2,0,.3,0,.4,0,.3,0,.6,0,.9,0,.3,0,.6,0,.9s0,.7,0,1.1c0,.4,0,.8,0,1.3s0,.8,0,1.2c0,.4,0,.7,0,.9s0,.5-.1.7c0,.2-.2.4-.4.6s-.4.3-.7.4c-.3.1-.7.2-1.1.2s-1,0-1.4-.2c-.4-.1-.8-.3-1-.6-.3-.3-.4-.7-.4-1.2s.1-.7.3-1,.6-.6,1-.7c.4-.2,1-.3,1.7-.3s1.1,0,1.7.2c.5.1,1,.3,1.5.5s.9.4,1.3.7.7.5,1,.8l-.8,1.3c-.3-.3-.6-.5-.9-.8-.3-.3-.7-.5-1.1-.7-.4-.2-.8-.4-1.3-.5s-.9-.2-1.4-.2-.8,0-1,.2c-.2.1-.4.3-.4.6s.1.5.4.6.6.2,1,.2.6,0,.7-.2c.1-.2.2-.4.2-.8s0-.5,0-.8c0-.3,0-.7,0-1.1,0-.4,0-.8,0-1.2s0-.7,0-1v-1.3c0-.2,0-.4,0-.5,0-.2,0-.4,0-.5,0-.2,0-.3,0-.4,0-.1,0-.2,0-.3h1.7ZM42.9,79.1c.2,0,.4,0,.7,0,.3,0,.6,0,1,0s.7,0,1.1,0c.4,0,.7,0,1,0v1.3c-.3,0-.6,0-1,0-.4,0-.7,0-1.1,0-.4,0-.7,0-1,0-.3,0-.5,0-.7,0v-1.3Z"/>
    <path class="st4" d="M51.2,78c0,.1,0,.3,0,.5,0,.2,0,.3,0,.5,0,.2,0,.3,0,.4,0,.2,0,.5,0,.7s0,.5,0,.8c0,.3,0,.5,0,.8,0,.5.1,1,.2,1.4,0,.4.2.7.4.9.2.2.3.3.6.3s.2,0,.4-.2c.1-.1.2-.3.3-.5,0-.2.2-.5.3-.7,0-.2.1-.5.2-.7l1.1,1.3c-.2.6-.5,1.1-.7,1.5-.2.4-.5.6-.7.8-.3.2-.5.2-.8.2s-.8-.1-1.1-.4c-.4-.3-.7-.7-.9-1.3-.2-.6-.4-1.4-.5-2.4,0-.3,0-.7,0-1.1,0-.4,0-.7,0-1.1,0-.3,0-.6,0-.8s0-.3,0-.5c0-.2,0-.4,0-.6h1.7ZM56.7,78.2c.2.2.4.6.6.9.2.4.4.7.5,1.2.2.4.3.8.4,1.3.1.4.2.8.3,1.3,0,.4.1.8.1,1.1l-1.5.6c0-.4-.1-.9-.2-1.5,0-.5-.2-1.1-.4-1.6-.2-.5-.4-1-.6-1.5-.2-.5-.5-.9-.8-1.2l1.4-.5Z"/>
    <path class="st4" d="M61.1,77.9h8v8.9h-1.4v-7.6h-5.3v7.6h-1.3v-8.9ZM62,80.3h6v1.2h-6v-1.2ZM62,82.7h6v1.2h-6v-1.2ZM62,85h6v1.2h-6v-1.2ZM64.3,76.5l1.6.2c-.1.4-.3.7-.4,1.1s-.3.6-.4.9l-1.2-.2c0-.2.1-.4.2-.6,0-.2.1-.4.2-.7s0-.4.1-.6Z"/>
    <path class="st4" d="M74.5,76.6l1.4.4c-.3.6-.6,1.3-1,1.8-.4.6-.8,1.1-1.2,1.6-.4.5-.9.9-1.4,1.3,0,0-.2-.2-.3-.3s-.3-.3-.4-.4c-.1-.1-.3-.2-.4-.3.5-.3.9-.7,1.3-1.1.4-.4.8-.9,1.1-1.4.3-.5.6-1.1.8-1.6ZM75.2,80.9h1.4c0,.6-.1,1.2-.3,1.8-.1.6-.3,1.1-.6,1.7-.3.5-.7,1-1.2,1.4-.5.4-1.2.8-2,1.1,0-.1-.1-.3-.2-.4,0-.1-.2-.3-.3-.4s-.2-.3-.3-.4c.7-.2,1.3-.5,1.8-.9.4-.3.8-.7,1-1.1.2-.4.4-.9.5-1.3,0-.5.1-.9.2-1.4ZM73.2,80.5h6v1.3h-6v-1.3ZM78.8,80.5h1.4v.3c0,0,0,.2,0,.2,0,.8,0,1.5,0,2.1,0,.6,0,1.1-.1,1.5s-.1.7-.2.9c0,.2-.1.4-.2.5-.1.2-.3.3-.5.4-.2,0-.3.1-.6.2-.2,0-.4,0-.7,0-.3,0-.6,0-.9,0,0-.2,0-.4-.1-.7,0-.3-.2-.5-.3-.7.3,0,.6,0,.9,0,.3,0,.5,0,.6,0s.2,0,.3,0c0,0,.1,0,.2-.1,0,0,.2-.3.2-.6s.1-.8.1-1.5c0-.6,0-1.5.1-2.5v-.2ZM78.7,76.6c.2.4.4.7.6,1.1s.5.7.8,1.1c.3.3.6.7.9,1,.3.3.6.6.9.8-.1,0-.2.2-.4.3-.1.1-.3.3-.4.4-.1.1-.2.3-.3.4-.3-.3-.6-.6-.9-1s-.6-.7-.9-1.1c-.3-.4-.6-.8-.9-1.2-.3-.4-.5-.9-.7-1.3l1.3-.5Z"/>
    <path class="st4" d="M85.9,77.4c0,0,0,.2,0,.3,0,.1,0,.3-.1.4s0,.2,0,.3c0,.2,0,.4-.1.6,0,.2,0,.5-.1.8,0,.3,0,.6-.1.9,0,.3,0,.6-.1.9,0,.3,0,.6,0,.8s0,.2,0,.4c0,.1,0,.3,0,.4,0-.1.1-.2.2-.4,0-.1.1-.3.2-.4,0-.1.1-.3.2-.4l.7.5c-.1.3-.2.6-.3,1-.1.3-.2.7-.3,1,0,.3-.1.6-.2.8,0,0,0,.2,0,.3,0,.1,0,.2,0,.2s0,.1,0,.2,0,.2,0,.2h-1.3c-.1-.3-.2-.8-.3-1.4s-.1-1.3-.1-2.1,0-.8,0-1.3c0-.4,0-.8.1-1.2,0-.4.1-.7.1-1.1,0-.3,0-.6.1-.8,0-.2,0-.3,0-.5s0-.4,0-.6h1.5ZM88.5,82.9c0,.2,0,.3,0,.5s0,.3,0,.4,0,.2,0,.3c0,0,.1.2.3.3.1,0,.3.1.5.2.2,0,.4,0,.7,0,.5,0,1,0,1.4,0s.9-.1,1.4-.2v1.5c-.3,0-.7.1-1.2.2-.5,0-1,0-1.6,0-.9,0-1.7-.2-2.1-.5s-.7-.8-.7-1.3,0-.4,0-.7,0-.5.1-.8h1.3ZM87.6,78.2c.3,0,.7,0,1.1,0,.4,0,.9,0,1.3,0,.4,0,.9,0,1.3,0,.4,0,.8,0,1,0v1.4c-.3,0-.7,0-1.1,0-.4,0-.8,0-1.2,0s-.8,0-1.2,0c-.4,0-.8,0-1.1,0v-1.4Z"/>
    <path class="st4" d="M95.1,82.2h1.3v4.7h-1.3v-4.7ZM95.5,77.5h1.3v2.7h5.3v-2.7h1.4v4h-8v-4ZM95.7,84.9h7.5v1.3h-7.5v-1.3ZM98.7,76.6h1.4v9.1h-1.4v-9.1ZM102.5,82.2h1.4v4.7h-1.4v-4.7Z"/>
    <path class="st4" d="M110.9,77.8c-.3.4-.7.8-1.1,1.3-.5.4-1,.8-1.5,1.2-.6.4-1.2.7-1.8,1,0-.1-.1-.2-.2-.4,0-.1-.2-.3-.3-.4,0-.1-.2-.2-.3-.3.6-.3,1.2-.6,1.8-1,.6-.4,1.1-.9,1.6-1.3s.8-.9,1.1-1.3h1.4c.3.4.6.8,1,1.1.4.4.7.7,1.1,1,.4.3.8.6,1.2.8.4.2.9.4,1.3.6-.2.2-.3.4-.5.6-.1.2-.3.4-.4.6-.6-.3-1.1-.6-1.7-.9-.6-.4-1.1-.8-1.6-1.2s-.9-.9-1.2-1.3ZM106.4,81.9h9.1v1.2h-9.1v-1.2ZM106.4,85.2c.7,0,1.4,0,2.3,0,.9,0,1.8,0,2.7,0,.9,0,1.9,0,2.8-.1v1.2c-.9,0-1.8,0-2.8.1-.9,0-1.8,0-2.6.1-.8,0-1.6,0-2.2.1l-.2-1.3ZM109.1,82.7l1.5.4c-.2.3-.3.7-.5,1.1-.2.4-.4.7-.6,1s-.3.6-.5.9l-1.2-.4c.1-.3.3-.6.5-.9.2-.3.3-.7.4-1,.1-.4.2-.7.3-1ZM108.3,79.8h5.2v1.2h-5.2v-1.2ZM111.8,83.9l1.2-.6c.3.3.7.6,1,.9.3.3.6.7.9,1,.3.3.5.6.7.9l-1.2.7c-.1-.3-.4-.6-.6-.9s-.6-.7-.9-1.1c-.3-.4-.6-.7-1-1Z"/>
    <path class="st4" d="M124.3,82.3c0-.2,0-.5-.2-.7-.1-.2-.3-.4-.5-.5s-.5-.2-.9-.2-.8,0-1.1,0-.7.1-1,.2c-.3,0-.5.2-.7.2-.2,0-.3.1-.5.2-.2,0-.4.1-.5.2l-.4-1.6c.2,0,.4,0,.6,0s.4,0,.6-.1c.3,0,.6-.1.9-.2.3,0,.7-.1,1.1-.2.4,0,.8,0,1.3,0s1.1.1,1.5.3c.4.2.8.5,1,.9.2.4.4.9.4,1.5s-.1,1.1-.4,1.6c-.3.5-.6.9-1.1,1.2-.5.4-1,.7-1.7.9-.6.2-1.3.4-2.1.5l-.8-1.4c.7,0,1.3-.2,1.9-.4s1-.4,1.4-.6.7-.5.9-.8.3-.7.3-1.1ZM120,77c.3,0,.7.1,1.1.2.4,0,.9.1,1.4.2s.9,0,1.4.1c.4,0,.8,0,1.1,0l-.2,1.4c-.3,0-.7,0-1.1,0-.4,0-.9,0-1.3-.1-.5,0-.9,0-1.3-.2-.4,0-.8-.1-1.1-.2l.2-1.3Z"/>
    <path class="st4" d="M131.3,85.9c-.3,0-.5,0-.7-.3-.2-.2-.3-.4-.3-.7s0-.5.3-.7c.2-.2.4-.3.7-.3s.5,0,.7.3c.2.2.3.4.3.7s0,.5-.3.7c-.2.2-.4.3-.7.3ZM130.7,83l-.3-3.8v-1.6c0,0,1.8,0,1.8,0v1.6c0,0-.4,3.8-.4,3.8h-1.1Z"/>
  </g>
  <g>
    <path class="st1" d="M20.4,37.7c.4,0,.6,0,1-.2l1.2.9c-.1.4-.5,2.1-.6,2.4-1.2,3.9-2.7,5.9-5.9,7.4-.5-.7-.7-.8-1.5-1.4,4.3-1.5,5.3-5.3,5.7-7.5h-7.2v3.2h-1.9v-4.9h4.5v-2.2h2c.2,0,.3.1.3.2s-.2.2-.3.3v1.7h2.7Z"/>
    <path class="st1" d="M31,45.3h4v1.6h-9.5v-1.6h3.8v-4.8h-2.8v-1.7h7.5v1.7h-2.9v4.8Z"/>
    <path class="st1" d="M42.2,36.4c.1,0,.3,0,.3.2s-.1.2-.3.3v3.4c0,3.6-1.6,5.2-3.5,6.6-.2-.3-.5-.6-1.6-1.3,2.7-1.7,3-3.3,3-5.2v-4.1h2ZM45.7,36.3c.2,0,.3,0,.3.2s-.1.2-.3.3v7.3c1.7-1.1,3.1-2.6,4-3.9.3.8.5,1.2.9,1.7-.9,1.3-2.7,3-4,3.9-1.2.8-1.3.9-1.7,1.2l-1.3-.8c0-.4,0-.7,0-1.1v-8.9h1.9Z"/>
    <path class="st1" d="M55.3,44.3c0,1.3.2,1.4,2.6,1.4s3.2,0,5.5-.3c-.2.7-.2,1-.3,1.9-.4,0-.7,0-2.9,0-5.1,0-5.7,0-6.4-.8-.3-.3-.5-.8-.5-1.8v-9.1h2c.1.1.3.2.3.3s-.1.2-.3.3v4.1c2.3-.4,5.1-1.6,6.2-2.6l1.6,1.3c0,0,.1.1.1.2,0,.1-.1.2-.3.2s-.1,0-.2,0c-3,1.8-6.1,2.5-7.4,2.7v2.3ZM62.2,35.9c.4.3,1.1,1,1.4,1.4-.3.2-.8.7-.9.8-.2-.2-.8-.9-1.5-1.4l.9-.8ZM63.4,34.8c.4.3,1.1,1,1.4,1.4-.3.3-.8.7-.9.8-.7-.8-1-1-1.5-1.4l.9-.8Z"/>
    <path class="st1" d="M78.8,40.8v2h-12.1v-2h12.1Z"/>
    <path class="st1" d="M89,47.9h-2v-6.7c-2.4,1.4-3.7,1.9-4.3,2.1-.4-.6-.9-1.2-1.4-1.7,4.5-1.3,7.9-4.1,9.7-6.5l1.7,1.3c0,0,.1.1.1.2,0,.1-.1.2-.3.2s-.2,0-.3,0c-1,1.1-2.1,2.1-3.3,3.1v8.1Z"/>
    <path class="st1" d="M96.7,35.8c2.1,1,3,1.8,3.7,2.4-.3.3-.5.6-1.2,1.6-1.7-1.4-3-2.1-3.7-2.4l1.2-1.7ZM95.7,45.7c3.4-.7,7.6-2.9,10.5-7.6.5.8.7,1.1,1.2,1.6-.9,1.4-3.5,5.4-10.2,7.7,0,.1,0,.3-.2.3s-.2-.1-.3-.2l-1.1-1.8Z"/>
    <path class="st1" d="M118.8,37.6c.5,0,.7,0,1-.2l1,.9c-.2.4-1,2.1-1.4,3.1-2.2,4.9-5.6,6.5-6.7,7-.3-.3-.5-.6-1.5-1.4,5-2.1,6.3-5.8,7-7.6h-3.9c-.9,1.4-1.9,2.5-3.3,3.7-.6-.7-.8-.9-1.5-1.3,1.5-1.2,3.6-3.3,4.7-6.3l1.7.8c0,0,.2,0,.2.2s-.3.2-.3.2c-.2.3-.3.5-.5.9h3.5ZM118.2,35c.2.2.9.8,1.3,1.3-.2,0-.6.4-1,.7-.6-.7-.9-1-1.3-1.3l1-.7ZM120.4,34.8c.5.4,1.1,1.1,1.3,1.4,0,0-.7.5-1,.7-.1-.2-.6-.9-1.2-1.4l.9-.7Z"/>
    <path class="st1" d="M131.6,43.7c.2-.3.7-.9,1-1.9h1.9c-.4,1.1-1,2.2-1.8,3.1l2.1,2.3h-2.4l-1-1.1c-.6.5-2.1,1.4-4.1,1.4s-3.8-1.3-3.8-3.3,1.6-2.9,2.8-3.4c-.8-.8-1.3-1.3-1.3-2.3s1.2-2.6,3.4-2.6,3.4,1.3,3.4,2.7-1.5,2.3-2.6,2.7l2.5,2.5ZM127.4,41.8c-.5.2-2,.8-2,2.3s1.7,1.7,2.2,1.7c1,0,1.8-.3,2.7-.9l-2.9-3.1ZM130.1,38.3c0-.5-.5-1.3-1.7-1.3s-1.7.7-1.7,1.2.8,1.3,1.4,1.8c1.7-.7,2-1.3,2-1.8Z"/>
    <path class="st1" d="M14.1,54.7h1.9c.1.1.3.1.3.3s-.2.2-.3.2v3.2l4.6-.6c.6,0,.9-.2,1-.3l1.2,1.1c-.5.6-.6.7-1.7,2.2-.7,1-1.3,1.7-1.7,2.2-.7-.5-1.4-.9-1.6-1,.8-.7,1.5-1.6,2.1-2.4l-3.9.5v3.3c0,1.1.2,1.3,1.7,1.3s3.4,0,4.4-.2c-.1.5-.2,1.3-.2,1.9-.6,0-4.4,0-4.6,0-2.7,0-3.2-.9-3.2-2.8v-3.3l-3.2.4-.2-1.8,3.4-.4v-3.9Z"/>
    <path class="st1" d="M29.9,55.4c.1,0,.3,0,.3.2s-.1.2-.3.3v3.4c0,3.6-1.6,5.2-3.5,6.6-.2-.3-.5-.6-1.6-1.3,2.7-1.7,3-3.3,3-5.2v-4.1h2ZM33.3,55.3c.2,0,.3,0,.3.2s-.1.2-.3.3v7.3c1.7-1.1,3.1-2.6,4-3.9.3.8.5,1.2.9,1.7-.9,1.3-2.7,3-4,3.9-1.2.8-1.3.9-1.7,1.2l-1.3-.8c0-.4,0-.7,0-1.1v-8.9h1.9Z"/>
    <path class="st1" d="M49.4,55.2c.3,0,.7,0,1,0l1.4,1.1c-.2.2-.3.4-.4.8-1.4,3.4-1.6,4-2.7,5.4-1.6,2.2-3.8,3.4-5.4,4.2-.4-.5-.8-.9-1.5-1.5,3.6-1.7,5.7-3.4,7.4-8.3h-8.8v-1.8h9Z"/>
    <path class="st1" d="M58.2,59.3c0,0-1.2,1.9-2.4,3.1-.5-.4-.9-.8-1.6-1.2,2.4-2.3,3.6-4.8,4.4-7.1l1.9.7c0,0,.2,0,.2.2s-.3.2-.4.2c-.3.8-.6,1.5-1,2.2h7.2v1.8h-3.5c-.1,2.7-.9,5.7-4.5,7.9-.6-.6-1.3-1.1-1.5-1.3,1.9-1.1,3.9-2.6,4.1-6.6h-2.8Z"/>
    <path class="st1" d="M79.9,55.5c.3,0,.5,0,.8-.1l1.3,1.2c-.2.2-.2.3-.5.7-1.8,2.5-3.2,3.9-4,4.6-.3-.4-.7-.8-1.4-1.3,1.4-1.2,2.1-1.8,3-3.2h-9.7v-1.8h10.4ZM76.2,58.1c0,0,.2,0,.2.1s-.2.3-.2.3c0,1.5-.3,3-.7,4.1-.5,1.3-1.7,3.1-3.6,4.1-.6-.6-.9-.8-1.7-1.2,2.1-1.2,4.2-2.8,3.9-7.6h2Z"/>
    <path class="st1" d="M87.8,58.7v-1.6h3.6v-2.8h1.7c0,0,.3.1.3.3s0,.2-.3.3v2.2h3.7v1.6h-3.2c.5,1.1,2,3.3,3.7,4.8-.3.3-1,1-1.2,1.3-.5-.4-2-2.3-3.1-4.6v3.2h1.6v1.6h-1.6v2.2h-1.7v-2.2h-1.6v-1.6h1.6v-3c-1.1,2.3-2.5,3.7-3.2,4.4-.5-.6-1-.9-1.1-.9v3.3h-1.7v-6.7c-.4.5-.6.8-.8,1-.2-.4-.7-.9-1.2-1.2,1.8-2,2.8-4.3,3.3-5.9l1.7.6c.2,0,.2.2.2.3,0,.2-.3.2-.4.2,0,.1-.1.3-.6,1.4-.1.4-.3.7-.5,1.1.3.1.4.2.4.3,0,.1,0,.2-.3.3v5.2c1.7-1.5,3-3.2,3.8-4.8h-3.2Z"/>
    <path class="st1" d="M100,62.9c.1,0,.3,0,.3.1s-.2.2-.2.2c0,1.2,0,1.9-.2,2.7-.2,0-.7-.1-1.1-.1.2-.9.3-1.9.3-3h.9ZM104.1,56.9v.6c2.3-1.2,2.9-2.7,3.1-3.2l1.4.3c.2,0,.3,0,.3.2s-.1.2-.3.2c.4.7,1.8,1.7,3.3,2.3-.5.5-.7.8-1,1.4-.3-.1-.4-.2-.7-.4v.8h-1.5v.6h2.6v3.6h-2.4c.4.6,1.2,1.8,2.8,2.6-.7.7-.8.9-1,1.3-1.7-.9-2.6-2.5-2.7-2.7-.5.8-1.6,2.2-3.1,2.8-.2-.4-.7-1-1.1-1.3,1-.4,2.4-1,3.1-2.8h-2.2v-3.6h2.5v-.6h-1.6v-.6c-.3.2-.4.3-.6.4-.5-.7-.5-.7-.8-1v.2h-1.3v.8h1.3v1.2h-1.3v.9h1.7c0,1.5-.1,4.3-1,5.5-.4.6-1,.6-2,.7-.1-.6-.3-.8-.6-1.5.2,0,.6,0,.9,0,.4,0,.9,0,1.1-1.7-.2,0-.4.1-.5.2,0-.7-.2-1-.3-1.6l.6-.2c0,.3.2.7.3,1,0-.4,0-.8,0-1.2h-2.4v.4h-1.4v-7.8h5.4v1.3h-1.8v.8h1.3ZM101,62.7c.1.8.2,2.2.2,2.3-.1,0-.7.2-.8.3,0-.7,0-1.7,0-2.5h.7ZM101.6,56.9v-.8h-.9v.8h.9ZM101.6,58.8v-.8h-.9v.8h.9ZM101.6,60.9v-.9h-.9v.9h.9ZM101.8,62.6c.2.6.3,1.6.4,1.8-.3,0-.4,0-.7.2,0-.2,0-1.1-.3-1.8h.6ZM107.2,61.9c0,0,0,0,0-.2v-.8h-1v1h1ZM109.5,57.7c-.5-.4-1.2-1-1.7-1.6-.3.4-.6.8-1.4,1.6h3.1ZM108.8,60.9v1h1.1v-1h-1.1Z"/>
  </g>
</svg>